#!OML:ASF C:\Vicon Data\Big\jianyuan-13\jianyuan\Session 1\Capture.male.ASF
:FULLY-SPECIFIED
:DEGREES
251
root -7.858225 17.585557 -13.057366 11.938786 5.510431 1.104698
lowerback -8.793528 -1.514981 -1.950598 
upperback -0.024801 -1.886284 0.685800 
thorax 4.994672 -1.002197 1.564227 
lowerneck -10.088042 -1.532188 3.358137 
upperneck 13.730661 -2.337805 -3.423292 
head 5.724038 -1.312967 -1.820434 
rclavicle 0.000000 0.000000 
rhumerus -43.773033 -23.962555 -73.791626 
rradius 25.348604 
rwrist 35.429200 
rhand -20.907612 -14.079191 
rfingers 0.000000 
rthumb 5.463565 -43.988777 
lclavicle 0.000000 0.000000 
lhumerus -19.355998 10.778606 89.481023 
lradius 34.219646 
lwrist -40.094030 
lhand -26.580304 -0.525083 
lfingers 0.000000 
lthumb -0.014759 29.454658 
rfemur -33.793539 6.720167 17.039178 
rtibia 23.931784 
rfoot -15.646432 -7.307677 
rtoes -19.769996 
lfemur -10.452803 -8.858704 -21.295637 
ltibia 9.633244 
lfoot -11.070431 4.576412 
ltoes -21.854666 
252
root -7.862973 17.583091 -13.010312 11.978265 5.542921 1.136558
lowerback -8.919667 -1.533648 -1.985865 
upperback -0.009615 -1.906300 0.703429 
thorax 5.084245 -1.014134 1.596449 
lowerneck -10.143232 -1.529932 3.210452 
upperneck 13.828639 -2.325382 -3.355969 
head 5.767421 -1.311009 -1.776456 
rclavicle 0.000000 0.000000 
rhumerus -43.807843 -24.128414 -73.582978 
rradius 25.262447 
rwrist 35.744601 
rhand -20.821527 -14.002027 
rfingers 0.000000 
rthumb 5.546676 -43.909437 
lclavicle 0.000000 0.000000 
lhumerus -19.216030 10.520063 89.557317 
lradius 34.312403 
lwrist -39.979734 
lhand -26.551948 -0.455533 
lfingers 0.000000 
lthumb 0.012647 29.524207 
rfemur -33.698607 6.601788 17.100823 
rtibia 23.919455 
rfoot -15.429735 -7.130881 
rtoes -19.738522 
lfemur -10.476155 -8.885719 -21.309199 
ltibia 9.921195 
lfoot -11.218813 4.509292 
ltoes -21.683948 
253
root -7.867753 17.580028 -12.963919 11.981799 5.600814 1.157058
lowerback -8.940184 -1.529796 -1.970713 
upperback -0.040211 -1.902067 0.672763 
thorax 5.061964 -1.011312 1.556460 
lowerneck -10.112253 -1.543203 3.214906 
upperneck 13.928064 -2.351909 -3.337875 
head 5.792634 -1.324595 -1.774811 
rclavicle 0.000000 0.000000 
rhumerus -43.907173 -24.217604 -73.515116 
rradius 25.199550 
rwrist 35.763883 
rhand -20.884495 -14.094910 
rfingers 0.000000 
rthumb 5.485864 -44.003872 
lclavicle 0.000000 0.000000 
lhumerus -19.195463 10.094289 89.560722 
lradius 34.452752 
lwrist -39.806671 
lhand -26.473090 -0.264167 
lfingers 0.000000 
lthumb 0.088796 29.715571 
rfemur -33.550583 6.476190 17.181629 
rtibia 23.914313 
rfoot -15.214000 -6.915490 
rtoes -19.734972 
lfemur -10.492137 -8.956671 -21.315267 
ltibia 10.268827 
lfoot -11.413660 4.446131 
ltoes -21.459484 
254
root -7.872987 17.576330 -12.917269 11.972382 5.673255 1.171085
lowerback -8.929666 -1.524374 -1.944728 
upperback -0.086732 -1.897745 0.639600 
thorax 5.005083 -1.007902 1.508764 
lowerneck -10.043241 -1.564110 3.230202 
upperneck 14.024990 -2.389450 -3.330263 
head 5.809905 -1.344164 -1.778563 
rclavicle 0.000000 0.000000 
rhumerus -44.044196 -24.302628 -73.437524 
rradius 25.113703 
rwrist 35.830702 
rhand -20.966394 -14.179704 
rfingers 0.000000 
rthumb 5.406793 -44.090709 
lclavicle 0.000000 0.000000 
lhumerus -19.215497 9.688615 89.547844 
lradius 34.592818 
lwrist -39.668845 
lhand -26.385037 -0.101571 
lfingers 0.000000 
lthumb 0.173846 29.878125 
rfemur -33.368233 6.367379 17.265653 
rtibia 23.909032 
rfoot -15.031909 -6.667668 
rtoes -19.701135 
lfemur -10.527941 -8.986727 -21.319733 
ltibia 10.677791 
lfoot -11.606252 4.332472 
ltoes -21.362270 
255
root -7.879024 17.571903 -12.869681 11.964869 5.754175 1.181380
lowerback -8.937525 -1.532055 -1.934766 
upperback -0.129791 -1.910452 0.636127 
thorax 4.964506 -1.013886 1.498227 
lowerneck -9.966079 -1.587915 3.157387 
upperneck 14.116341 -2.419431 -3.306835 
head 5.825600 -1.363608 -1.762131 
rclavicle 0.000000 0.000000 
rhumerus -44.204098 -24.434416 -73.242425 
rradius 24.969592 
rwrist 36.193967 
rhand -20.977093 -14.129232 
rfingers 0.000000 
rthumb 5.396507 -44.040532 
lclavicle 0.000000 0.000000 
lhumerus -19.224794 9.438070 89.556994 
lradius 34.698632 
lwrist -39.636821 
lhand -26.316044 -0.077693 
lfingers 0.000000 
lthumb 0.240546 29.901885 
rfemur -33.161033 6.294247 17.341951 
rtibia 23.898407 
rfoot -14.910378 -6.388169 
rtoes -19.592370 
lfemur -10.605051 -8.911188 -21.326596 
ltibia 11.156094 
lfoot -11.761800 4.124083 
ltoes -21.534790 
256
root -7.886085 17.565016 -12.820658 11.942505 5.789490 1.250866
lowerback -8.960293 -1.515278 -2.029328 
upperback -0.149697 -1.878614 0.631633 
thorax 4.958062 -1.000501 1.550675 
lowerneck -9.900554 -1.611877 3.073987 
upperneck 14.178137 -2.446795 -3.280837 
head 5.834293 -1.381416 -1.742562 
rclavicle 0.000000 0.000000 
rhumerus -44.382676 -24.687446 -72.926581 
rradius 24.847506 
rwrist 36.659673 
rhand -20.914104 -13.993659 
rfingers 0.000000 
rthumb 5.457297 -43.903405 
lclavicle 0.000000 0.000000 
lhumerus -19.211994 9.202657 89.597714 
lradius 34.752813 
lwrist -39.785073 
lhand -26.265366 -0.148661 
lfingers 0.000000 
lthumb 0.289448 29.830909 
rfemur -32.907214 6.334914 17.312612 
rtibia 23.878931 
rfoot -14.731232 -6.123719 
rtoes -19.361488 
lfemur -10.680458 -8.838262 -21.408842 
ltibia 11.703301 
lfoot -11.958142 3.973404 
ltoes -22.172409 
257
root -7.891488 17.558347 -12.771747 11.929728 5.839415 1.320597
lowerback -8.978235 -1.511043 -2.098846 
upperback -0.177927 -1.865952 0.616431 
thorax 4.939809 -0.995789 1.575560 
lowerneck -9.849962 -1.625209 3.035114 
upperneck 14.256824 -2.464977 -3.272285 
head 5.850368 -1.393995 -1.735608 
rclavicle 0.000000 0.000000 
rhumerus -44.542047 -24.825927 -72.728041 
rradius 24.763189 
rwrist 36.951884 
rhand -20.916308 -13.955813 
rfingers 0.000000 
rthumb 5.455168 -43.865593 
lclavicle 0.000000 0.000000 
lhumerus -19.189088 9.001597 89.606298 
lradius 34.782528 
lwrist -39.906060 
lhand -26.158102 -0.171360 
lfingers 0.000000 
lthumb 0.393034 29.808030 
rfemur -32.652251 6.317571 17.298144 
rtibia 23.857747 
rfoot -14.596395 -5.876223 
rtoes -19.372221 
lfemur -10.773444 -8.833272 -21.491824 
ltibia 12.259331 
lfoot -12.152936 3.887579 
ltoes -22.767142 
258
root -7.896198 17.552456 -12.722511 11.921324 5.904958 1.378336
lowerback -9.006556 -1.517920 -2.140589 
upperback -0.203427 -1.870825 0.603807 
thorax 4.930189 -0.999191 1.584874 
lowerneck -9.805749 -1.631374 2.966412 
upperneck 14.337489 -2.473127 -3.235267 
head 5.869322 -1.401124 -1.714130 
rclavicle 0.000000 0.000000 
rhumerus -44.640890 -24.839536 -72.645782 
rradius 24.707982 
rwrist 36.999801 
rhand -20.987516 -14.041205 
rfingers 0.000000 
rthumb 5.386414 -43.952717 
lclavicle 0.000000 0.000000 
lhumerus -19.157332 8.812453 89.604810 
lradius 34.790595 
lwrist -40.002732 
lhand -26.031963 -0.164893 
lfingers 0.000000 
lthumb 0.514859 29.814231 
rfemur -32.396066 6.270340 17.309081 
rtibia 23.845133 
rfoot -14.466054 -5.669892 
rtoes -19.592096 
lfemur -10.871100 -8.812427 -21.560657 
ltibia 12.804802 
lfoot -12.313636 3.787894 
ltoes -23.251622 
259
root -7.901368 17.548061 -12.672395 11.911081 5.988021 1.408582
lowerback -9.064388 -1.534638 -2.150039 
upperback -0.212494 -1.891977 0.610176 
thorax 4.954690 -1.010365 1.592672 
lowerneck -9.757716 -1.634299 2.775320 
upperneck 14.401907 -2.469747 -3.112177 
head 5.885752 -1.402284 -1.644180 
rclavicle 0.000000 0.000000 
rhumerus -44.625809 -24.710095 -72.683674 
rradius 24.672591 
rwrist 36.705679 
rhand -21.135448 -14.286597 
rfingers 0.000000 
rthumb 5.243551 -44.201746 
lclavicle 0.000000 0.000000 
lhumerus -19.117848 8.608242 89.619891 
lradius 34.779455 
lwrist -40.077759 
lhand -25.932381 -0.151458 
lfingers 0.000000 
lthumb 0.611015 29.827417 
rfemur -32.138473 6.226468 17.359402 
rtibia 23.854076 
rfoot -14.291521 -5.536283 
rtoes -19.990573 
lfemur -10.957798 -8.672225 -21.596503 
ltibia 13.315517 
lfoot -12.398819 3.577212 
ltoes -23.538620 
260
root -7.907816 17.545054 -12.621769 11.879409 6.072337 1.452719
lowerback -9.073173 -1.515346 -2.135064 
upperback -0.242347 -1.865933 0.547008 
thorax 4.924509 -0.996389 1.522152 
lowerneck -9.649428 -1.658230 2.795963 
upperneck 14.432861 -2.515259 -3.068906 
head 5.875867 -1.421749 -1.636473 
rclavicle 0.000000 0.000000 
rhumerus -44.781493 -24.929601 -72.525060 
rradius 24.586148 
rwrist 36.831586 
rhand -20.905474 -14.143926 
rfingers 0.000000 
rthumb 5.465613 -44.053461 
lclavicle 0.000000 0.000000 
lhumerus -19.136862 8.284047 89.560658 
lradius 34.765705 
lwrist -40.111580 
lhand -25.767252 -0.191785 
lfingers 0.000000 
lthumb 0.770518 29.786588 
rfemur -31.883236 6.232159 17.374300 
rtibia 23.879351 
rfoot -14.069612 -5.564257 
rtoes -20.485908 
lfemur -10.967761 -8.736278 -21.625021 
ltibia 13.751531 
lfoot -12.554004 3.506238 
ltoes -23.660275 
